<svg width="316" height="325" viewBox="0 0 316 325" fill="none" xmlns="http://www.w3.org/2000/svg">
<rect x="96.8835" y="18.9616" width="8" height="74" transform="rotate(-41.2881 96.8835 18.9616)" fill="url(#paint0_linear_2202_58)" stroke="black" stroke-width="3"/>
<circle cx="98.5237" cy="15.5247" r="9.5" transform="rotate(-41.2881 98.5237 15.5247)" fill="url(#paint1_linear_2202_58)" stroke="black" stroke-width="3"/>
<rect x="212.904" y="14.3673" width="8" height="74" transform="rotate(40.6822 212.904 14.3673)" fill="url(#paint2_linear_2202_58)" stroke="black" stroke-width="3"/>
<circle cx="216.535" cy="15.5122" r="9.5" transform="rotate(40.6822 216.535 15.5122)" fill="url(#paint3_linear_2202_58)" stroke="black" stroke-width="3"/>
<path d="M128.576 82C129.089 76.9709 132.164 72.335 137.098 68.8107C142.516 64.9406 150.078 62.5 158.5 62.5C166.922 62.5 174.484 64.9406 179.902 68.8107C184.836 72.335 187.911 76.9709 188.424 82H188.371H188.279H188.188H188.096H188.006H187.916H187.826H187.736H187.647H187.559H187.471H187.383H187.296H187.209H187.122H187.036H186.95H186.865H186.78H186.695H186.611H186.527H186.444H186.361H186.278H186.196H186.114H186.033H185.951H185.871H185.79H185.71H185.631H185.551H185.472H185.394H185.316H185.238H185.16H185.083H185.007H184.93H184.854H184.778H184.703H184.628H184.553H184.479H184.405H184.332H184.258H184.185H184.113H184.04H183.968H183.897H183.825H183.754H183.684H183.613H183.543H183.474H183.404H183.335H183.266H183.198H183.13H183.062H182.994H182.927H182.86H182.794H182.727H182.661H182.596H182.53H182.465H182.4H182.335H182.271H182.207H182.143H182.08H182.017H181.954H181.891H181.829H181.767H181.705H181.643H181.582H181.521H181.46H181.4H181.339H181.279H181.22H181.16H181.101H181.042H180.983H180.925H180.866H180.808H180.751H180.693H180.636H180.579H180.522H180.465H180.409H180.353H180.297H180.241H180.186H180.13H180.075H180.02H179.966H179.911H179.857H179.803H179.75H179.696H179.643H179.589H179.537H179.484H179.431H179.379H179.327H179.275H179.223H179.171H179.12H179.069H179.018H178.967H178.916H178.865H178.815H178.765H178.715H178.665H178.616H178.566H178.517H178.468H178.419H178.37H178.321H178.272H178.224H178.176H178.128H178.08H178.032H177.984H177.937H177.89H177.842H177.795H177.748H177.702H177.655H177.608H177.562H177.516H177.469H177.423H177.377H177.332H177.286H177.24H177.195H177.15H177.104H177.059H177.014H176.969H176.924H176.88H176.835H176.791H176.746H176.702H176.658H176.614H176.57H176.526H176.482H176.438H176.394H176.351H176.307H176.264H176.22H176.177H176.134H176.09H176.047H176.004H175.961H175.918H175.875H175.833H175.79H175.747H175.704H175.662H175.619H175.577H175.534H175.492H175.45H175.407H175.365H175.323H175.281H175.238H175.196H175.154H175.112H175.07H175.028H174.986H174.944H174.902H174.86H174.818H174.776H174.734H174.692H174.65H174.608H174.566H174.525H174.483H174.441H174.399H174.357H174.315H174.273H174.231H174.189H174.147H174.105H174.063H174.021H173.979H173.937H173.895H173.853H173.811H173.769H173.727H173.684H173.642H173.6H173.558H173.515H173.473H173.43H173.388H173.345H173.303H173.26H173.217H173.175H173.132H173.089H173.046H173.003H172.96H172.917H172.874H172.83H172.787H172.744H172.7H172.657H172.613H172.569H172.525H172.482H172.438H172.394H172.349H172.305H172.261H172.216H172.172H172.127H172.083H172.038H171.993H171.948H171.903H171.857H171.812H171.767H171.721H171.675H171.63H171.584H171.538H171.491H171.445H171.399H171.352H171.305H171.259H171.212H171.165H171.117H171.07H171.022H170.975H170.927H170.879H170.831H170.783H170.734H170.686H170.637H170.588H170.539H170.49H170.441H170.391H170.342H170.292H170.242H170.192H170.141H170.091H170.04H169.989H169.938H169.887H169.835H169.784H169.732H169.68H169.628H169.575H169.523H169.47H169.417H169.364H169.311H169.257H169.203H169.149H169.095H169.041H168.986H168.931H168.876H168.821H168.765H168.71H168.654H168.598H168.541H168.485H168.428H168.371H168.313H168.256H168.198H168.14H168.082H168.023H167.964H167.905H167.846H167.787H167.727H167.667H167.607H167.546H167.485H167.424H167.363H167.301H167.239H167.177H167.115H167.052H166.989H166.926H166.863H166.799H166.735H166.671H166.606H166.541H166.476H166.41H166.345H166.279H166.212H166.146H166.079H166.011H165.944H165.876H165.808H165.739H165.67H165.601H165.532H165.462H165.392H165.322H165.251H165.18H165.109H165.037H164.965H164.893H164.82H164.747H164.674H164.6H164.526H164.452H164.377H164.302H164.227H164.151H164.075H163.999H163.922H163.845H163.767H163.689H163.611H163.533H163.454H163.374H163.295H163.215H163.134H163.054H162.972H162.891H162.809H162.727H162.644H162.561H162.478H162.394H162.31H162.225H162.14H162.055H161.969H161.883H161.796H161.709H161.622H161.534H161.446H161.357H161.268H161.179H161.089H160.999H160.908H160.817H160.725H160.633H160.541H160.448H160.355H160.261H160.167H160.073H159.978H159.882H159.787H159.69H159.594H159.496H159.399H159.301H159.202H159.103H159.004H158.904H158.804H158.703H158.602H158.5H158.398H158.298H158.198H158.099H158H157.903H157.806H157.71H157.614H157.52H157.426H157.333H157.241H157.149H157.058H156.968H156.879H156.791H156.703H156.616H156.529H156.444H156.359H156.274H156.191H156.108H156.026H155.944H155.864H155.783H155.704H155.625H155.547H155.47H155.393H155.317H155.242H155.167H155.093H155.02H154.947H154.875H154.803H154.733H154.662H154.593H154.524H154.456H154.388H154.321H154.254H154.188H154.123H154.058H153.994H153.931H153.868H153.806H153.744H153.683H153.622H153.562H153.503H153.444H153.385H153.327H153.27H153.214H153.157H153.102H153.047H152.992H152.938H152.885H152.832H152.779H152.727H152.676H152.625H152.574H152.524H152.475H152.426H152.377H152.329H152.282H152.235H152.188H152.142H152.097H152.051H152.007H151.962H151.919H151.875H151.832H151.79H151.748H151.706H151.665H151.624H151.584H151.544H151.504H151.465H151.426H151.388H151.35H151.312H151.275H151.238H151.202H151.166H151.13H151.095H151.06H151.026H150.991H150.958H150.924H150.891H150.858H150.826H150.794H150.762H150.73H150.699H150.668H150.638H150.608H150.578H150.548H150.519H150.49H150.461H150.433H150.405H150.377H150.35H150.322H150.295H150.269H150.242H150.216H150.19H150.165H150.139H150.114H150.089H150.064H150.04H150.016H149.992H149.968H149.944H149.921H149.898H149.875H149.852H149.83H149.808H149.785H149.763H149.742H149.72H149.699H149.678H149.657H149.636H149.615H149.595H149.574H149.554H149.534H149.514H149.494H149.474H149.455H149.436H149.416H149.397H149.378H149.359H149.34H149.322H149.303H149.285H149.266H149.248H149.23H149.212H149.194H149.176H149.158H149.14H149.122H149.105H149.087H149.069H149.052H149.034H149.017H149H148.982H148.965H148.948H148.931H148.913H148.896H148.879H148.862H148.845H148.827H148.81H148.793H148.776H148.759H148.741H148.724H148.707H148.69H148.672H148.655H148.638H148.62H148.603H148.585H148.568H148.55H148.532H148.514H148.497H148.479H148.461H148.443H148.425H148.406H148.388H148.37H148.351H148.332H148.314H148.295H148.276H148.257H148.238H148.218H148.199H148.18H148.16H148.14H148.12H148.1H148.08H148.059H148.039H148.018H147.997H147.976H147.955H147.933H147.912H147.89H147.868H147.846H147.823H147.801H147.778H147.755H147.732H147.708H147.685H147.661H147.637H147.613H147.588H147.563H147.538H147.513H147.488H147.462H147.436H147.41H147.383H147.356H147.329H147.302H147.274H147.247H147.218H147.19H147.161H147.132H147.103H147.073H147.043H147.013H146.982H146.952H146.92H146.889H146.857H146.825H146.792H146.759H146.726H146.692H146.658H146.624H146.59H146.555H146.519H146.483H146.447H146.411H146.374H146.337H146.299H146.261H146.222H146.184H146.144H146.105H146.065H146.024H145.983H145.942H145.9H145.858H145.815H145.772H145.729H145.685H145.64H145.596H145.55H145.504H145.458H145.411H145.364H145.317H145.269H145.22H145.171H145.121H145.071H145.021H144.969H144.918H144.866H144.813H144.76H144.706H144.652H144.597H144.542H144.486H144.43H144.373H144.316H144.258H144.199H144.14H144.081H144.021H143.96H143.898H143.837H143.774H143.711H143.647H143.583H143.518H143.453H143.387H143.32H143.253H143.185H143.116H143.047H142.978H142.907H142.836H142.764H142.692H142.619H142.546H142.471H142.397H142.321H142.245H142.168H142.09H142.012H141.933H141.854H141.773H141.693H141.611H141.529H141.445H141.362H141.277H141.192H141.106H141.02H140.932H140.844H140.756H140.666H140.576H140.485H140.393H140.301H140.207H140.113H140.019H139.923H139.827H139.73H139.632H139.533H139.434H139.334H139.233H139.131H139.028H138.925H138.821H138.716H138.61H138.504H138.396H138.288H138.179H138.069H137.958H137.847H137.734H137.621H137.507H137.392H137.276H137.159H137.042H136.923H136.804H136.684H136.563H136.441H136.318H136.194H136.07H135.944H135.818H135.691H135.562H135.433H135.303H135.172H135.04H134.908H134.774H134.639H134.503H134.367H134.229H134.091H133.951H133.811H133.67H133.527H133.384H133.24H133.095H132.948H132.801H132.653H132.504H132.354H132.202H132.05H131.897H131.743H131.588H131.432H131.274H131.116H130.957H130.796H130.635H130.473H130.309H130.145H129.979H129.812H129.645H129.476H129.306H129.135H128.963H128.79H128.616H128.576Z" fill="url(#paint4_linear_2202_58)" stroke="black" stroke-width="3"/>
<rect opacity="0.81" y="83" width="316" height="234" rx="38" fill="#567178"/>
<rect opacity="0.88" x="10" y="91" width="297" height="218" rx="35" fill="#041C32"/>
<rect x="24" y="108" width="206" height="183" rx="43" fill="#020B23"/>
<path d="M116.011 172.513C114.924 172.513 113.675 172.513 112.262 172.513C110.849 172.404 109.219 172.296 107.372 172.187C104.221 172.078 101.341 172.024 98.733 172.024C96.125 171.915 94.3863 171.752 93.517 171.535V183.923C91.9957 185.118 90.909 187.509 90.257 191.095C89.3877 201.853 88.8443 210.492 88.627 217.012C88.4097 223.423 88.3553 228.422 88.464 232.008C88.5727 234.181 88.6813 236.029 88.79 237.55C88.8987 238.963 89.0617 240.104 89.279 240.973L91.072 249.612L90.257 250.916L70.534 255.317H70.045C69.8277 255.317 69.556 255.371 69.23 255.48C69.0127 255.48 68.7953 255.48 68.578 255.48L63.199 251.731C63.199 251.622 63.2533 251.568 63.362 251.568C63.4707 251.459 63.5793 251.296 63.688 251.079C63.7967 250.753 63.9053 250.264 64.014 249.612C64.1227 248.851 64.177 247.819 64.177 246.515C64.177 245.428 64.177 244.668 64.177 244.233C64.2857 243.798 64.2313 243.092 64.014 242.114C63.7967 240.81 63.7967 237.876 64.014 233.312C64.1227 228.748 63.362 226.466 61.732 226.466C61.9493 225.271 62.058 223.858 62.058 222.228C62.1667 220.598 62.2753 219.077 62.384 217.664C62.4927 216.795 62.547 215.98 62.547 215.219C62.547 214.35 62.547 213.48 62.547 212.611C62.6557 212.502 62.71 212.394 62.71 212.285C62.8187 212.176 62.9273 212.068 63.036 211.959L63.199 211.796C63.7423 210.927 64.014 210.275 64.014 209.84C64.014 209.297 64.2313 208.101 64.666 206.254V199.245C66.7307 199.571 67.1653 197.832 65.97 194.029C64.992 189.9 64.829 187.835 65.481 187.835C65.807 186.422 66.133 184.792 66.459 182.945C66.6763 181.424 66.8937 179.794 67.111 178.055C67.3283 176.208 67.5457 174.36 67.763 172.513L67.111 172.024C66.3503 172.676 65.4267 172.893 64.34 172.676C63.362 172.459 62.4383 172.296 61.569 172.187C59.0697 172.513 56.9507 172.785 55.212 173.002C53.4733 173.219 52.0607 173.6 50.974 174.143C50.322 174.36 49.7243 174.523 49.181 174.632C48.6377 174.741 48.366 175.501 48.366 176.914L39.075 178.87L36.141 176.751C35.7063 175.664 35.326 174.632 35 173.654C34.674 172.567 34.4567 171.263 34.348 169.742L36.304 165.015C37.8253 164.798 39.0207 164.689 39.89 164.689C40.868 164.689 41.5743 164.743 42.009 164.852C42.5523 164.852 42.9327 164.906 43.15 165.015C43.3673 165.124 43.5847 165.178 43.802 165.178C44.9973 164.635 46.247 164.146 47.551 163.711C48.855 163.168 50.3763 162.679 52.115 162.244C53.9623 161.809 56.0813 161.429 58.472 161.103C60.9713 160.668 63.9597 160.234 67.437 159.799L82.27 159.147L83.9 160.451C84.4433 160.777 85.041 161.103 85.693 161.429C86.345 161.646 86.997 161.755 87.649 161.755C88.4097 161.864 89.116 161.592 89.768 160.94C89.9853 160.723 90.2027 160.397 90.42 159.962C91.2893 159.745 92.702 159.745 94.658 159.962C96.7227 160.071 99.8197 160.451 103.949 161.103C111.121 162.298 115.848 162.95 118.13 163.059L119.108 164.689V170.068L116.011 172.513ZM181.775 226.14C182.21 225.923 182.536 225.434 182.753 224.673C182.97 223.804 183.133 222.88 183.242 221.902C183.459 220.924 183.622 219.946 183.731 218.968C183.948 217.881 184.274 217.012 184.709 216.36C186.013 214.404 187.1 212.774 187.969 211.47C188.947 210.057 189.762 208.916 190.414 208.047C191.175 207.069 191.772 206.308 192.207 205.765C192.642 205.113 192.968 204.461 193.185 203.809C194.598 202.722 195.358 201.744 195.467 200.875C195.684 200.006 196.173 198.81 196.934 197.289C197.477 196.202 198.075 194.79 198.727 193.051C199.379 191.204 199.759 190.117 199.868 189.791C200.194 188.813 200.737 187.726 201.498 186.531C202.367 185.227 203.182 183.869 203.943 182.456C204.812 180.935 205.573 179.359 206.225 177.729C206.877 175.99 207.203 174.197 207.203 172.35C207.312 169.959 207.366 167.895 207.366 166.156C207.475 164.309 207.638 162.733 207.855 161.429L212.908 160.288L218.613 162.896C218.613 164.635 219.156 166.156 220.243 167.46C221.438 168.655 222.09 169.742 222.199 170.72C222.199 171.589 221.547 173.111 220.243 175.284C218.939 177.349 217.961 179.902 217.309 182.945C217.2 183.814 216.548 184.955 215.353 186.368C214.158 187.672 213.506 189.248 213.397 191.095C213.397 192.942 213.017 194.844 212.256 196.8C211.495 198.647 210.952 199.951 210.626 200.712C209.648 203.103 208.181 206.308 206.225 210.329C204.378 214.35 202.041 219.294 199.216 225.162C196.391 231.03 194.054 235.594 192.207 238.854C190.36 242.114 189.273 244.124 188.947 244.885L187.643 247.819L186.339 250.427L179.982 254.828L169.387 254.991L166.127 256.621L160.259 249.938C159.607 248.308 158.629 246.515 157.325 244.559C156.13 242.603 154.989 240.321 153.902 237.713L150.153 228.096C151.131 225.814 151.62 224.021 151.62 222.717C151.729 221.413 151.511 220.435 150.968 219.783C150.425 219.131 149.664 218.751 148.686 218.642C147.708 218.425 146.676 218.262 145.589 218.153C144.937 218.044 144.231 217.392 143.47 216.197C142.709 214.893 141.949 214.024 141.188 213.589L140.862 209.84L136.624 202.994L135.32 188.976C135.537 188.215 135.429 187.618 134.994 187.183C134.668 186.748 134.179 186.422 133.527 186.205L131.571 185.39C130.81 185.064 130.376 184.684 130.267 184.249C129.398 182.51 128.691 180.935 128.148 179.522C127.713 178.001 127.333 176.642 127.007 175.447C126.681 174.252 126.301 173.165 125.866 172.187C125.54 171.209 125.051 170.394 124.399 169.742L124.562 163.059C125.866 162.298 127.605 161.809 129.778 161.592C132.277 161.375 134.179 160.505 135.483 158.984L140.862 157.354C142.166 158.441 143.47 159.419 144.774 160.288C146.078 161.157 147.056 161.972 147.708 162.733C149.447 164.798 151.729 166.482 154.554 167.786C154.663 168.329 154.989 169.579 155.532 171.535C156.184 173.491 156.89 175.827 157.651 178.544C158.52 181.261 159.498 184.249 160.585 187.509C161.672 190.66 162.704 193.757 163.682 196.8C164.769 199.843 165.801 202.668 166.779 205.276C167.866 207.775 168.789 209.786 169.55 211.307C169.876 211.959 170.256 212.991 170.691 214.404C171.126 215.817 171.56 217.284 171.995 218.805C172.43 220.218 172.81 221.576 173.136 222.88C173.571 224.184 173.897 225.053 174.114 225.488C174.875 225.488 175.527 225.597 176.07 225.814C176.613 226.031 177.157 226.249 177.7 226.466C178.243 226.683 178.841 226.792 179.493 226.792C180.145 226.792 180.906 226.575 181.775 226.14Z" fill="#FF0066"/>
<circle cx="270" cy="138" r="15" fill="url(#paint5_linear_2202_58)"/>
<circle cx="270" cy="185" r="15" fill="url(#paint6_linear_2202_58)"/>
<rect x="255" y="217" width="30" height="4" fill="url(#paint7_linear_2202_58)"/>
<rect x="255" y="229" width="30" height="4" fill="url(#paint8_linear_2202_58)"/>
<rect x="255" y="277" width="30" height="4" fill="url(#paint9_linear_2202_58)"/>
<rect x="255" y="265" width="30" height="4" fill="url(#paint10_linear_2202_58)"/>
<rect x="255" y="253" width="30" height="4" fill="url(#paint11_linear_2202_58)"/>
<rect x="255" y="241" width="30" height="4" fill="url(#paint12_linear_2202_58)"/>
<rect x="261.908" y="146.945" width="23.124" height="7" rx="3.5" transform="rotate(-63.9903 261.908 146.945)" fill="#FF0066"/>
<rect x="257.302" y="185.264" width="23.124" height="7" rx="3.5" transform="rotate(-20.2476 257.302 185.264)" fill="#FF0066"/>
<rect x="39" y="317" width="238" height="8" rx="4" fill="#34889B"/>
<defs>
<linearGradient id="paint0_linear_2202_58" x1="100.267" y1="18.8242" x2="100.267" y2="95.8242" gradientUnits="userSpaceOnUse">
<stop stop-color="#D9D9D9"/>
<stop offset="1" stop-color="#72969F"/>
</linearGradient>
<linearGradient id="paint1_linear_2202_58" x1="98.5237" y1="4.52469" x2="98.5237" y2="26.5247" gradientUnits="userSpaceOnUse">
<stop stop-color="#577279"/>
<stop offset="1" stop-color="#FF0066"/>
</linearGradient>
<linearGradient id="paint2_linear_2202_58" x1="218.244" y1="12.252" x2="218.244" y2="89.252" gradientUnits="userSpaceOnUse">
<stop stop-color="#D9D9D9"/>
<stop offset="1" stop-color="#72969F"/>
</linearGradient>
<linearGradient id="paint3_linear_2202_58" x1="216.535" y1="4.5122" x2="216.535" y2="26.5122" gradientUnits="userSpaceOnUse">
<stop stop-color="#577279"/>
<stop offset="1" stop-color="#FF0066"/>
</linearGradient>
<linearGradient id="paint4_linear_2202_58" x1="158.5" y1="61" x2="158.5" y2="83.5" gradientUnits="userSpaceOnUse">
<stop stop-color="#6BAAB9"/>
<stop offset="1" stop-color="#4C6267"/>
</linearGradient>
<linearGradient id="paint5_linear_2202_58" x1="270" y1="123" x2="270" y2="153" gradientUnits="userSpaceOnUse">
<stop stop-color="#104253"/>
<stop offset="1" stop-color="#2493B9"/>
</linearGradient>
<linearGradient id="paint6_linear_2202_58" x1="270" y1="170" x2="270" y2="200" gradientUnits="userSpaceOnUse">
<stop stop-color="#104253"/>
<stop offset="1" stop-color="#2493B9"/>
</linearGradient>
<linearGradient id="paint7_linear_2202_58" x1="255" y1="219" x2="285" y2="219" gradientUnits="userSpaceOnUse">
<stop stop-color="#FF0066"/>
<stop offset="1" stop-color="#1F6D88"/>
</linearGradient>
<linearGradient id="paint8_linear_2202_58" x1="255" y1="231" x2="285" y2="231" gradientUnits="userSpaceOnUse">
<stop stop-color="#FF0066"/>
<stop offset="1" stop-color="#1F6D88"/>
</linearGradient>
<linearGradient id="paint9_linear_2202_58" x1="255" y1="279" x2="285" y2="279" gradientUnits="userSpaceOnUse">
<stop stop-color="#FF0066"/>
<stop offset="1" stop-color="#1F6D88"/>
</linearGradient>
<linearGradient id="paint10_linear_2202_58" x1="255" y1="267" x2="285" y2="267" gradientUnits="userSpaceOnUse">
<stop stop-color="#FF0066"/>
<stop offset="1" stop-color="#1F6D88"/>
</linearGradient>
<linearGradient id="paint11_linear_2202_58" x1="255" y1="255" x2="285" y2="255" gradientUnits="userSpaceOnUse">
<stop stop-color="#FF0066"/>
<stop offset="1" stop-color="#1F6D88"/>
</linearGradient>
<linearGradient id="paint12_linear_2202_58" x1="255" y1="243" x2="285" y2="243" gradientUnits="userSpaceOnUse">
<stop stop-color="#FF0066"/>
<stop offset="1" stop-color="#1F6D88"/>
</linearGradient>
</defs>
</svg>

